<svg xmlns="http://www.w3.org/2000/svg" xmlns:xlink="http://www.w3.org/1999/xlink" width="500" zoomAndPan="magnify" viewBox="0 0 375 374.999991" height="500" preserveAspectRatio="xMidYMid meet" version="1.0"><defs><g/></defs><g fill="#000000" fill-opacity="1"><g transform="translate(141.061839, 236.345506)"><g><path d="M 41.0625 -61.28125 L 85.953125 -76.015625 L 74.625 -110.546875 L 29.734375 -95.8125 L 26.90625 -104.4375 L 75.25 -120.3125 L 63.90625 -154.84375 L -29.3125 -124.25 L 10.359375 -3.40625 L 107.015625 -35.125 L 95.6875 -69.65625 L 43.90625 -52.65625 Z M 41.0625 -61.28125 "/></g></g></g><g fill="#000000" fill-opacity="1"><g transform="translate(161.065998, 268.404013)"><g><path d="M 3.46875 -30.65625 L -6.4375 -27.421875 L 2.28125 -0.75 L 22.46875 -7.34375 L 19.609375 -16.109375 L 9.328125 -12.75 Z M 3.46875 -30.65625 "/></g></g></g><g fill="#000000" fill-opacity="1"><g transform="translate(184.299301, 260.813651)"><g><path d="M 9.078125 -13.5 L 18.984375 -16.734375 L 16.5 -24.359375 L 6.59375 -21.125 L 5.96875 -23.046875 L 16.640625 -26.53125 L 14.140625 -34.140625 L -6.4375 -27.421875 L 2.28125 -0.75 L 23.609375 -7.71875 L 21.125 -15.34375 L 9.703125 -11.609375 Z M 9.078125 -13.5 "/></g></g></g><g fill="#000000" fill-opacity="1"><g transform="translate(209.056099, 252.725561)"><g><path d="M -8.328125 -26.796875 L 7.8125 -2.546875 L 20.765625 -6.78125 L 19.46875 -35.875 L 8.421875 -32.265625 L 10.671875 -15.71875 L 2.71875 -30.40625 Z M -8.328125 -26.796875 "/></g></g></g><g fill="#000000" fill-opacity="1"><g transform="translate(237.621631, 243.39315)"><g><path d="M 9.078125 -13.5 L 18.984375 -16.734375 L 16.5 -24.359375 L 6.59375 -21.125 L 5.96875 -23.046875 L 16.640625 -26.53125 L 14.140625 -34.140625 L -6.4375 -27.421875 L 2.28125 -0.75 L 23.609375 -7.71875 L 21.125 -15.34375 L 9.703125 -11.609375 Z M 9.078125 -13.5 "/></g></g></g></svg>